# This file uses centimeters as units for non-parametric coordinates.

mtllib scythe.mtl
g default
v 0.097365 0.144865 -0.070739
v 0.037190 0.144865 -0.114459
v -0.037190 0.144865 -0.114459
v -0.097365 0.144865 -0.070739
v -0.120349 0.144865 0.000000
v -0.097365 0.144865 0.070739
v -0.037190 0.144865 0.114459
v 0.037190 0.144865 0.114459
v 0.097365 0.144865 0.070739
v 0.120349 0.144865 -0.000000
v 0.097365 5.602484 -0.070739
v 0.037190 5.602484 -0.114459
v -0.037190 5.602484 -0.114459
v -0.097365 5.602484 -0.070739
v -0.120349 5.602484 0.000000
v -0.097365 5.602484 0.070739
v -0.037190 5.602484 0.114459
v 0.037190 5.602484 0.114459
v 0.097365 5.602484 0.070739
v 0.120349 5.602484 -0.000000
v 0.000000 0.144865 -0.000000
v 0.000000 5.602484 -0.000000
v 0.097365 4.556772 -0.070739
v 0.037190 4.556772 -0.114459
v -0.037190 4.556772 -0.114459
v -0.097365 4.556772 -0.070739
v -0.120349 4.556772 0.000000
v -0.097365 4.556772 0.070739
v -0.037190 4.556772 0.114459
v 0.037190 4.556772 0.114459
v 0.097365 4.556772 0.070739
v 0.120349 4.556772 -0.000000
v 0.014735 4.674947 -0.132245
v -0.014736 4.674947 -0.132245
v -0.014736 5.466710 -0.132245
v 0.014735 5.466710 -0.132245
v 0.021572 4.995612 -1.115063
v 0.021571 5.003792 -2.023495
v 0.021570 4.977634 -2.963571
v 0.021570 4.671755 -4.638658
v -0.021573 4.995612 -1.115063
v -0.021574 5.003792 -2.023495
v -0.021575 4.977634 -2.963571
v -0.021575 4.671755 -4.638658
v -0.021573 5.466710 -1.119965
v -0.021574 5.458796 -2.109897
v -0.021575 5.310343 -2.877212
v -0.021575 5.035655 -3.692420
v 0.021572 5.466710 -1.119965
v 0.021571 5.458796 -2.109897
v 0.021570 5.310343 -2.877212
v 0.021570 5.035655 -3.692420
vt 0.626409 0.064409
vt 0.548284 0.007647
vt 0.451716 0.007647
vt 0.373591 0.064409
vt 0.343750 0.156250
vt 0.373591 0.248091
vt 0.451716 0.304853
vt 0.548284 0.304853
vt 0.626409 0.248091
vt 0.656250 0.156250
vt 0.375000 0.312500
vt 0.400000 0.312500
vt 0.425000 0.312500
vt 0.450000 0.312500
vt 0.475000 0.312500
vt 0.500000 0.312500
vt 0.525000 0.312500
vt 0.550000 0.312500
vt 0.575000 0.312500
vt 0.600000 0.312500
vt 0.625000 0.312500
vt 0.375000 0.688440
vt 0.400000 0.688440
vt 0.425000 0.688440
vt 0.450000 0.688440
vt 0.475000 0.688440
vt 0.500000 0.688440
vt 0.525000 0.688440
vt 0.550000 0.688440
vt 0.575000 0.688440
vt 0.600000 0.688440
vt 0.625000 0.688440
vt 0.626409 0.751909
vt 0.548284 0.695147
vt 0.451716 0.695147
vt 0.373591 0.751909
vt 0.343750 0.843750
vt 0.373591 0.935591
vt 0.451716 0.992353
vt 0.548284 0.992353
vt 0.626409 0.935591
vt 0.656250 0.843750
vt 0.500000 0.150000
vt 0.500000 0.837500
vt 0.625000 0.616408
vt 0.375000 0.616408
vt 0.400000 0.616408
vt 0.425000 0.616408
vt 0.450000 0.616408
vt 0.475000 0.616408
vt 0.500000 0.616408
vt 0.525000 0.616408
vt 0.550000 0.616408
vt 0.575000 0.616408
vt 0.600000 0.616408
vt 0.400000 0.616408
vt 0.425000 0.616408
vt 0.425000 0.688440
vt 0.400000 0.688440
vt 0.400000 0.616408
vt 0.400000 0.616408
vt 0.400000 0.616408
vt 0.400000 0.616408
vt 0.425000 0.616408
vt 0.425000 0.616408
vt 0.425000 0.616408
vt 0.425000 0.616408
vt 0.425000 0.688440
vt 0.425000 0.688440
vt 0.425000 0.688440
vt 0.425000 0.688440
vt 0.400000 0.688440
vt 0.400000 0.688440
vt 0.400000 0.688440
vt 0.400000 0.688440
vn 0.587785 0.000000 -0.809017
vn 0.587785 0.000000 -0.809017
vn 0.587785 0.000000 -0.809017
vn 0.587785 0.000000 -0.809017
vn 0.000000 0.933358 -0.358947
vn 0.000000 0.933358 -0.358947
vn 0.000000 0.933358 -0.358947
vn 0.000000 0.933358 -0.358947
vn -0.587785 0.000000 -0.809017
vn -0.587785 0.000000 -0.809017
vn -0.587785 0.000000 -0.809017
vn -0.587785 0.000000 -0.809017
vn -0.951057 0.000000 -0.309017
vn -0.951057 0.000000 -0.309017
vn -0.951057 0.000000 -0.309017
vn -0.951057 0.000000 -0.309017
vn -0.951057 0.000000 0.309017
vn -0.951057 0.000000 0.309017
vn -0.951057 0.000000 0.309017
vn -0.951057 0.000000 0.309017
vn -0.587785 0.000000 0.809017
vn -0.587785 0.000000 0.809017
vn -0.587785 0.000000 0.809017
vn -0.587785 0.000000 0.809017
vn 0.000000 -0.000000 1.000000
vn 0.000000 -0.000000 1.000000
vn 0.000000 -0.000000 1.000000
vn 0.000000 -0.000000 1.000000
vn 0.587785 0.000000 0.809017
vn 0.587785 0.000000 0.809017
vn 0.587785 -0.000000 0.809017
vn 0.587785 -0.000000 0.809017
vn 0.951056 0.000000 0.309017
vn 0.951056 0.000000 0.309017
vn 0.951056 0.000000 0.309017
vn 0.951056 0.000000 0.309017
vn 0.951057 0.000000 -0.309017
vn 0.951057 0.000000 -0.309017
vn 0.951057 0.000000 -0.309017
vn 0.951057 0.000000 -0.309017
vn 0.000000 -1.000000 0.000000
vn 0.000000 -1.000000 0.000000
vn 0.000000 -1.000000 0.000000
vn 0.000000 -1.000000 0.000000
vn 0.000000 -1.000000 0.000000
vn 0.000000 -1.000000 0.000000
vn 0.000000 -1.000000 0.000000
vn 0.000000 -1.000000 0.000000
vn 0.000000 -1.000000 0.000000
vn 0.000000 -1.000000 0.000000
vn 0.000000 -1.000000 0.000000
vn 0.000000 1.000000 0.000000
vn 0.000000 1.000000 0.000000
vn 0.000000 1.000000 0.000000
vn 0.000000 1.000000 0.000000
vn 0.000000 1.000000 0.000000
vn 0.000000 1.000000 0.000000
vn 0.000000 1.000000 0.000000
vn 0.000000 1.000000 0.000000
vn 0.000000 1.000000 0.000000
vn 0.000000 1.000000 0.000000
vn 0.000000 1.000000 0.000000
vn 0.587785 0.000000 -0.809017
vn 0.587785 0.000000 -0.809017
vn -0.000000 0.000000 -1.000000
vn -0.000000 0.000000 -1.000000
vn -0.039127 -0.001200 -0.999233
vn 0.039127 -0.001200 -0.999234
vn -0.587785 0.000000 -0.809017
vn -0.587785 0.000000 -0.809017
vn -0.951057 0.000000 -0.309017
vn -0.951057 0.000000 -0.309017
vn -0.951057 0.000000 0.309017
vn -0.951057 0.000000 0.309017
vn -0.587785 0.000000 0.809017
vn -0.587785 0.000000 0.809017
vn 0.000000 0.000000 1.000000
vn 0.000000 0.000000 1.000000
vn 0.587785 0.000000 0.809017
vn 0.587785 0.000000 0.809017
vn 0.951056 0.000000 0.309017
vn 0.951056 0.000000 0.309017
vn 0.951057 0.000000 -0.309017
vn 0.951057 0.000000 -0.309017
vn -0.493485 -0.037016 -0.868966
vn 0.493479 -0.037016 -0.868970
vn -0.552697 0.017740 -0.833193
vn -0.481031 0.035199 -0.875997
vn 0.552691 0.017739 -0.833197
vn 0.481025 0.035198 -0.876000
vn 0.000000 -0.950678 -0.310179
vn 0.000000 -0.950678 -0.310179
vn 0.000000 -0.987464 -0.157846
vn 0.000000 -0.987464 -0.157846
vn 0.000000 -0.999953 0.009726
vn 0.000000 -0.999953 0.009726
vn 0.000000 -0.992036 0.125955
vn 0.000000 -0.992036 0.125955
vn 0.000000 -0.983733 0.179634
vn 0.000000 -0.983733 0.179635
vn -0.999976 0.000027 0.006944
vn -0.999976 0.000027 0.006944
vn -0.999993 0.000014 0.003720
vn -0.999990 0.000017 0.004426
vn -1.000000 0.000000 0.000001
vn -1.000000 0.000000 0.000001
vn -1.000000 -0.000000 0.000001
vn -1.000000 -0.000001 0.000001
vn -1.000000 -0.000001 0.000001
vn -1.000000 -0.000001 0.000001
vn 0.000000 1.000000 0.000000
vn 0.000000 1.000000 0.000000
vn 0.000000 0.999990 -0.004354
vn 0.000000 0.999990 -0.004354
vn 0.000000 0.996064 -0.088634
vn 0.000000 0.996064 -0.088634
vn 0.000000 0.966062 -0.258309
vn 0.000000 0.966062 -0.258309
vn 0.000000 0.947649 -0.319314
vn 0.000000 0.947649 -0.319314
vn 0.999976 0.000027 0.006943
vn 0.999976 0.000027 0.006943
vn 0.999990 0.000017 0.004424
vn 0.999993 0.000014 0.003719
vn 1.000000 -0.000000 -0.000001
vn 1.000000 -0.000000 -0.000001
vn 1.000000 0.000001 -0.000001
vn 1.000000 0.000000 -0.000001
vn 1.000000 0.000001 -0.000001
vn 1.000000 0.000001 -0.000001
s 1
g pCylinder1
usemtl initialShadingGroup
f 23/46/1 24/47/2 12/23/3 11/22/4
s off
f 40/63/5 44/67/6 48/71/7 52/75/8
s 2
f 25/48/9 26/49/10 14/25/11 13/24/12
s 3
f 26/49/13 27/50/14 15/26/15 14/25/16
s 4
f 27/50/17 28/51/18 16/27/19 15/26/20
s 5
f 28/51/21 29/52/22 17/28/23 16/27/24
s 6
f 29/52/25 30/53/26 18/29/27 17/28/28
s 7
f 30/53/29 31/54/30 19/30/31 18/29/32
s 8
f 31/54/33 32/55/34 20/31/35 19/30/36
s 9
f 32/55/37 23/45/38 11/32/39 20/31/40
s 10
f 2/2/41 1/1/42 21/43/43
f 3/3/44 2/2/41 21/43/43
f 4/4/45 3/3/44 21/43/43
f 5/5/46 4/4/45 21/43/43
f 6/6/47 5/5/46 21/43/43
f 7/7/48 6/6/47 21/43/43
f 8/8/49 7/7/48 21/43/43
f 9/9/50 8/8/49 21/43/43
f 10/10/51 9/9/50 21/43/43
f 1/1/42 10/10/51 21/43/43
s 11
f 11/41/52 12/40/53 22/44/54
f 12/40/53 13/39/55 22/44/54
f 13/39/55 14/38/56 22/44/54
f 14/38/56 15/37/57 22/44/54
f 15/37/57 16/36/58 22/44/54
f 16/36/58 17/35/59 22/44/54
f 17/35/59 18/34/60 22/44/54
f 18/34/60 19/33/61 22/44/54
f 19/33/61 20/42/62 22/44/54
f 20/42/62 11/41/52 22/44/54
s 1
f 1/11/63 2/12/64 24/47/2 23/46/1
s 12
f 2/12/65 3/13/66 25/48/67 24/47/68
s 2
f 3/13/69 4/14/70 26/49/10 25/48/9
s 3
f 4/14/71 5/15/72 27/50/14 26/49/13
s 4
f 5/15/73 6/16/74 28/51/18 27/50/17
s 5
f 6/16/75 7/17/76 29/52/22 28/51/21
s 6
f 7/17/77 8/18/78 30/53/26 29/52/25
s 7
f 8/18/79 9/19/80 31/54/30 30/53/29
s 8
f 9/19/81 10/20/82 32/55/34 31/54/33
s 9
f 10/20/83 1/21/84 23/45/38 32/55/37
s 12
f 24/47/68 25/48/67 34/57/85 33/56/86
f 25/48/67 13/24/87 35/58/88 34/57/85
f 13/24/87 12/23/89 36/59/90 35/58/88
f 12/23/89 24/47/68 33/56/86 36/59/90
s 13
f 33/56/91 34/57/92 41/64/93 37/60/94
f 37/60/94 41/64/93 42/65/95 38/61/96
f 38/61/96 42/65/95 43/66/97 39/62/98
f 39/62/98 43/66/97 44/67/99 40/63/100
s 14
f 34/57/101 35/58/102 45/68/103 41/64/104
f 41/64/104 45/68/103 46/69/105 42/65/106
f 42/65/106 46/69/105 47/70/107 43/66/108
f 43/66/108 47/70/107 48/71/109 44/67/110
s 15
f 35/58/111 36/59/112 49/72/113 45/68/114
f 45/68/114 49/72/113 50/73/115 46/69/116
f 46/69/116 50/73/115 51/74/117 47/70/118
f 47/70/118 51/74/117 52/75/119 48/71/120
s 16
f 36/59/121 33/56/122 37/60/123 49/72/124
f 49/72/124 37/60/123 38/61/125 50/73/126
f 50/73/126 38/61/125 39/62/127 51/74/128
f 51/74/128 39/62/127 40/63/129 52/75/130
